<?xml version="1.0" standalone="no"?>
<!DOCTYPE svg PUBLIC "-//W3C//DTD SVG 20010904//EN"
 "http://www.w3.org/TR/2001/REC-SVG-20010904/DTD/svg10.dtd">
<svg version="1.0" xmlns="http://www.w3.org/2000/svg"
 width="64.000000pt" height="64.000000pt" viewBox="0 0 64.000000 64.000000"
 preserveAspectRatio="xMidYMid meet">

<g transform="translate(0.000000,64.000000) scale(0.100000,-0.100000)"
fill="#000000" stroke="none">
<path d="M87 633 c-4 -3 -7 -26 -7 -50 0 -35 -3 -43 -18 -43 -34 0 -62 -29
-62 -66 0 -19 5 -34 10 -34 6 0 10 13 10 28 0 50 44 70 68 32 7 -12 23 -20 38
-20 17 0 28 7 31 20 5 19 14 20 163 20 149 0 158 -1 163 -20 7 -27 53 -27 69
0 15 23 41 26 57 6 8 -9 11 -83 9 -247 l-3 -234 -222 -3 c-137 -1 -223 -6
-223 -12 0 -6 82 -10 218 -10 199 0 220 2 235 18 15 16 17 49 17 255 0 232 0
236 -22 251 -12 9 -30 16 -40 16 -13 0 -18 10 -20 48 -3 47 -3 47 -40 50 l-38
3 0 -50 0 -51 -160 0 -160 0 0 50 0 50 -33 0 c-19 0 -37 -3 -40 -7z m53 -23
c0 -5 -9 -10 -20 -10 -11 0 -20 5 -20 10 0 6 9 10 20 10 11 0 20 -4 20 -10z
m400 0 c0 -5 -9 -10 -20 -10 -11 0 -20 5 -20 10 0 6 9 10 20 10 11 0 20 -4 20
-10z m-400 -71 c0 -33 -3 -40 -17 -37 -13 2 -19 14 -21 41 -3 32 0 37 17 37
18 0 21 -6 21 -41z m398 4 c-2 -27 -8 -39 -20 -41 -15 -3 -18 4 -18 37 0 35 3
41 21 41 17 0 20 -5 17 -37z"/>
<path d="M225 473 c-158 -83 -175 -293 -32 -390 82 -55 172 -55 254 0 142 96
126 308 -29 388 -47 24 -150 25 -193 2z m202 -29 c124 -71 132 -251 15 -341
-175 -134 -411 78 -299 269 59 102 180 132 284 72z"/>
<path d="M210 356 c0 -41 4 -77 9 -80 4 -3 6 -38 3 -78 -3 -60 -1 -76 12 -87
12 -10 23 -11 39 -4 20 9 22 18 24 89 1 43 5 114 8 157 5 52 3 77 -4 77 -6 0
-11 -18 -11 -40 0 -22 -4 -40 -10 -40 -5 0 -10 18 -10 40 0 22 -4 40 -10 40
-5 0 -10 -18 -10 -40 0 -22 -4 -40 -10 -40 -5 0 -10 15 -10 34 0 19 -4 38 -10
41 -6 4 -10 -21 -10 -69z m80 -46 c0 -16 -7 -20 -30 -20 -23 0 -30 4 -30 20 0
16 7 20 30 20 23 0 30 -4 30 -20z m-16 -105 c7 -70 4 -85 -20 -85 -11 0 -14
14 -14 59 0 108 24 126 34 26z"/>
<path d="M346 415 c-19 -20 -23 -149 -5 -161 8 -4 10 -27 6 -66 -5 -60 7 -88
37 -88 29 0 39 29 33 90 -4 38 -3 60 4 60 6 0 9 33 7 88 l-3 87 -31 3 c-19 2
-38 -3 -48 -13z m64 -78 c0 -41 -3 -77 -7 -81 -4 -4 -6 -37 -4 -73 3 -59 1
-64 -16 -61 -16 3 -18 12 -15 70 3 40 0 68 -7 72 -12 8 -15 128 -4 139 3 4 17
7 30 7 22 0 23 -3 23 -73z"/>
<path d="M0 222 c0 -220 1 -222 88 -222 71 0 66 18 -5 22 l-58 3 -3 193 c-1
116 -6 192 -12 192 -6 0 -10 -72 -10 -188z"/>
<path d="M44 85 c-12 -29 4 -46 38 -43 28 2 34 8 36 31 3 25 1 27 -33 27 -22
0 -38 -6 -41 -15z m56 -15 c0 -5 -9 -10 -20 -10 -11 0 -20 5 -20 10 0 6 9 10
20 10 11 0 20 -4 20 -10z"/>
</g>
</svg>
